<?xml version="1.0" encoding="UTF-8"?>
<svg xmlns="http://www.w3.org/2000/svg" xmlns:xlink="http://www.w3.org/1999/xlink" width="32pt" height="32pt" viewBox="0 0 32 32" version="1.1">
<g id="surface1">
<path style=" stroke:none;fill-rule:nonzero;fill:rgb(93.333333%,83.137255%,24.313725%);fill-opacity:0.784314;" d="M 16 1 C 13.296875 1 10.746094 1.691406 8.558594 2.933594 L 9.90625 4.222656 L 10.023438 4.339844 L 15.179688 9.554688 L 16.527344 8.207031 L 11.839844 3.578125 C 13.148438 3.136719 14.539062 2.875 16 2.875 C 23.269531 2.875 29.125 8.730469 29.125 16 C 29.125 18.179688 28.59375 20.230469 27.660156 22.035156 L 29.066406 23.441406 C 30.308594 21.253906 31 18.703125 31 16 C 31 7.691406 24.308594 1 16 1 Z M 2.933594 8.558594 C 1.691406 10.746094 1 13.296875 1 16 C 1 24.308594 7.691406 31 16 31 C 18.703125 31 21.253906 30.308594 23.441406 29.066406 L 16.820312 22.445312 L 15.53125 23.792969 L 20.160156 28.421875 C 18.851562 28.863281 17.460938 29.125 16 29.125 C 8.730469 29.125 2.875 23.269531 2.875 16 C 2.875 13.820312 3.40625 11.769531 4.339844 9.964844 Z M 2.933594 8.558594 "/>
</g>
</svg>
