<?xml version="1.0" encoding="UTF-8"?>
<svg xmlns="http://www.w3.org/2000/svg" xmlns:xlink="http://www.w3.org/1999/xlink" width="32pt" height="32pt" viewBox="0 0 32 32" version="1.1">
<g id="surface1">
<path style=" stroke:none;fill-rule:nonzero;fill:rgb(82.745098%,37.254902%,37.254902%);fill-opacity:1;" d="M 14.125 1 L 14.125 14.125 L 17.875 14.125 L 17.875 1 Z M 12.25 1.496094 C 5.769531 3.15625 1 8.988281 1 16 C 1 24.308594 7.691406 31 16 31 C 24.308594 31 31 24.308594 31 16 C 31 8.988281 26.230469 3.15625 19.75 1.496094 L 19.75 3.441406 C 25.179688 5.050781 29.125 10.035156 29.125 16 C 29.125 23.269531 23.269531 29.125 16 29.125 C 8.730469 29.125 2.875 23.269531 2.875 16 C 2.875 10.035156 6.820312 5.050781 12.25 3.441406 Z M 12.25 1.496094 "/>
</g>
</svg>
